<?xml version="1.0" encoding="UTF-8"?>
<svg id="Layer_2" data-name="Layer 2" xmlns="http://www.w3.org/2000/svg" viewBox="0 0 348.12 20.74">
  <defs>
    <style>
      .cls-1 {
        fill: #fbfcfd;
      }

      .cls-1, .cls-2, .cls-3 {
        stroke-width: 0px;
      }

      .cls-2 {
        fill: #51c0a8;
      }

      .cls-3 {
        fill: #0d6052;
      }
    </style>
  </defs>
  <g id="Layer_1-2" data-name="Layer 1">
    <g>
      <g>
        <rect class="cls-3" x="24.54" y="9.08" width="298.67" height="2.62"/>
        <path class="cls-1" d="M322.96,9.33v2.12H24.79v-2.12h298.17M323.46,8.83H24.29v3.12h299.17v-3.12h0Z"/>
      </g>
      <g>
        <g>
          <path class="cls-3" d="M19.32,16.11c-.4,0-1-.12-1.65-.67-.35-.3-.44-.76-.25-1.28.42-1.13,2.41-2.8,6.21-2.8.13,0,.23.1.25.22.01.13-.07.24-.19.27-.03,0-3.2.73-4.16,1.9-.24.29-.34.59-.3.88.08.56.65.96.66.96.08.05.12.15.11.24-.01.09-.07.17-.16.2-.02,0-.21.07-.51.07Z"/>
          <path class="cls-1" d="M23.63,11.61s-3.27.74-4.3,1.98.41,2.21.41,2.21c0,0-.16.06-.42.06-.36,0-.9-.11-1.49-.61-1.02-.88,1.02-3.64,5.8-3.64M23.63,11.11c-3.51,0-5.9,1.49-6.44,2.97-.23.61-.11,1.19.32,1.55.71.6,1.38.73,1.81.73.33,0,.55-.07.59-.09.18-.06.3-.22.33-.41.02-.19-.06-.37-.22-.48-.13-.09-.5-.42-.55-.79-.03-.22.05-.45.25-.69.75-.91,3.16-1.62,4.02-1.81.25-.06.42-.29.39-.54-.03-.25-.24-.44-.5-.44h0Z"/>
        </g>
        <g>
          <path class="cls-3" d="M23.63,9.38c-3.8,0-5.79-1.68-6.21-2.8-.19-.51-.1-.98.25-1.28.65-.55,1.26-.67,1.65-.67.3,0,.49.07.51.07.09.03.15.11.16.2.01.09-.03.19-.11.24,0,0-.58.4-.66.96-.04.29.06.59.3.88.96,1.16,4.13,1.89,4.16,1.9.12.03.21.14.19.27-.01.13-.12.22-.25.22Z"/>
          <path class="cls-1" d="M19.32,4.88c.26,0,.42.06.42.06,0,0-1.43.97-.41,2.21,1.02,1.24,4.3,1.98,4.3,1.98,0,0,0,0,0,0-4.77,0-6.82-2.76-5.8-3.64.59-.5,1.13-.61,1.49-.61M19.32,4.38c-.44,0-1.11.13-1.81.73-.43.36-.54.94-.32,1.55.54,1.47,2.93,2.97,6.44,2.97.25,0,.47-.19.5-.44s-.14-.49-.39-.54c-.87-.2-3.27-.9-4.02-1.81-.2-.24-.28-.47-.25-.69.06-.44.55-.79.55-.79.16-.11.24-.29.22-.48-.02-.19-.15-.34-.33-.41-.04-.01-.26-.09-.59-.09h0Z"/>
        </g>
        <g>
          <path class="cls-3" d="M15.58,20.49c-1.16,0-2.38-.38-3.04-.95-.56-.49-.82-1.14-.74-1.88.07-.67.4-1.37.93-2.04-.79.61-1.52,1.38-1.76,2.27-.02.09-.09.16-.18.18-.02,0-.04,0-.06,0-.07,0-.13-.03-.18-.08-.02-.02-.56-.59-.45-1.45.1-.8.73-1.56,1.86-2.25.64-.39,1.29-.73,1.9-1.02-1.43.52-3.08,1.34-4.61,2.62-.05.04-.1.06-.16.06-.05,0-.1-.02-.15-.05-.09-.07-.13-.19-.09-.29.03-.08.81-2,2.67-2.68.66-.24,1.33-.48,1.97-.69-1.75.4-3.86,1.26-5.16,3.05-.05.07-.12.1-.2.1-.04,0-.08-.01-.12-.03-.04-.03-1.09-.63-1.09-1.59,0-.49.27-.96.81-1.42-.39.04-.87.07-1.37.07-.84,0-1.55-.09-2.12-.26-1.5-.46-3.76-1.53-3.85-1.58-.09-.04-.14-.13-.14-.23s.06-.18.14-.23c.1-.05,2.35-1.12,3.85-1.58.57-.18,1.28-.26,2.12-.26.5,0,.97.03,1.37.07-.53-.45-.81-.93-.81-1.42,0-.96,1.04-1.57,1.09-1.59.04-.02.08-.03.12-.03.08,0,.15.04.2.1,1.3,1.8,3.41,2.65,5.17,3.05-.65-.21-1.31-.45-1.98-.69-1.86-.68-2.64-2.59-2.67-2.68-.04-.11,0-.23.09-.29.04-.03.1-.05.15-.05.06,0,.11.02.16.06,1.53,1.28,3.17,2.1,4.61,2.62-.61-.29-1.25-.63-1.9-1.02-1.13-.69-1.76-1.45-1.86-2.25-.11-.86.42-1.43.45-1.45.05-.05.11-.08.18-.08.02,0,.04,0,.06,0,.09.02.16.09.18.18.23.89.96,1.67,1.75,2.27-.53-.67-.86-1.37-.92-2.04-.07-.74.18-1.39.74-1.88.65-.57,1.87-.95,3.04-.95.79,0,1.47.18,1.97.52,1.15.77,1.15,1.94.99,2.45-.03.1-.12.17-.22.17,0,0-.01,0-.02,0-.09,0-.18-.05-.22-.14-.47-.96-1.25-1.16-1.82-1.16-.38,0-.78.09-1.12.26-.21.1-.9.49-.95,1.22-.04.63.39,1.69,2.68,3.18,2.9,1.9,5.04,2.18,6.05,2.18.42,0,.64-.05.65-.05.02,0,.04,0,.05,0,.06,0,.11.02.16.06.06.05.09.12.09.19v2.49c0,.07-.03.14-.09.19-.05.04-.1.06-.16.06-.01,0-.03,0-.04,0-.01,0-.21-.04-.56-.04-1.06,0-3.27.28-6.15,2.16-2.29,1.5-2.72,2.56-2.68,3.18.05.73.74,1.12.95,1.22.35.17.74.26,1.12.26.57,0,1.35-.2,1.82-1.16.04-.09.13-.14.22-.14,0,0,.01,0,.02,0,.1,0,.19.08.22.17.16.51.16,1.67-.98,2.45-.5.34-1.18.52-1.97.52Z"/>
          <path class="cls-1" d="M15.58.5c.68,0,1.34.14,1.83.47,1.3.88.89,2.17.89,2.17-.47-.96-1.28-1.3-2.04-1.3-.45,0-.88.11-1.23.28-.96.46-2.52,2.07,1.71,4.84,2.95,1.93,5.14,2.22,6.19,2.22.46,0,.7-.05.7-.05v2.49s-.21-.04-.61-.04c-1.03,0-3.32.27-6.28,2.2-4.23,2.76-2.66,4.38-1.71,4.84.35.17.79.28,1.23.28.77,0,1.57-.34,2.04-1.3,0,0,.41,1.29-.89,2.17-.49.33-1.15.47-1.83.47-1.11,0-2.28-.37-2.87-.89-1.6-1.39-.14-3.96,2.39-5.39,0,0-3.75,1.52-4.37,3.87,0,0-1.5-1.57,1.36-3.32,2.87-1.75,5.73-2.4,5.73-2.4,0,0-4.71.23-8.73,3.59,0,0,.75-1.89,2.52-2.53,1.77-.64,4.02-1.43,5.32-1.47.33-.01.11-.06-.44-.06-1.62,0-6.12.43-8.36,3.52,0,0-2.52-1.43.61-3.18,0,0-1.12.21-2.38.21-.69,0-1.43-.06-2.05-.25-1.5-.46-3.82-1.57-3.82-1.57,0,0,2.32-1.11,3.82-1.57.62-.19,1.36-.25,2.05-.25,1.27,0,2.38.21,2.38.21-3.14-1.75-.61-3.18-.61-3.18,2.23,3.09,6.74,3.52,8.36,3.52.56,0,.77-.05.44-.06-1.3-.05-3.55-.83-5.32-1.47-1.77-.64-2.52-2.53-2.52-2.53,4.02,3.36,8.73,3.59,8.73,3.59,0,0-2.87-.64-5.73-2.4-2.87-1.75-1.36-3.32-1.36-3.32.61,2.35,4.37,3.87,4.37,3.87-2.52-1.43-3.99-4-2.39-5.39.59-.51,1.76-.89,2.87-.89M15.58,0v.5S15.58,0,15.58,0c-1.22,0-2.51.41-3.2,1.01-.62.54-.91,1.27-.83,2.09.02.21.07.43.14.64-.22-.3-.39-.62-.47-.96-.05-.18-.18-.31-.36-.36-.04-.01-.08-.02-.13-.02-.13,0-.27.05-.36.15-.24.25-.62.88-.51,1.66.05.39.21.76.47,1.12-.31-.22-.61-.45-.91-.7-.09-.08-.21-.12-.32-.12-.1,0-.21.03-.29.09-.19.13-.26.38-.17.59,0,.02.08.21.23.48-.11-.13-.22-.26-.32-.4-.1-.13-.25-.21-.41-.21-.08,0-.17.02-.25.06-.05.03-1.22.7-1.21,1.81,0,.39.14.76.42,1.12-.23-.01-.48-.02-.73-.02-.86,0-1.6.09-2.2.27-1.52.47-3.79,1.55-3.89,1.59-.17.08-.28.26-.28.45s.11.37.28.45c.1.05,2.37,1.13,3.89,1.59.59.18,1.33.27,2.2.27.25,0,.5,0,.73-.02-.28.36-.42.73-.42,1.12,0,1.11,1.16,1.78,1.21,1.81.08.04.16.06.25.06.16,0,.31-.07.41-.21.1-.14.21-.27.32-.4-.15.27-.22.45-.23.48-.08.21-.01.46.17.59.09.06.19.09.29.09.11,0,.23-.04.32-.12.3-.25.6-.48.91-.7-.26.36-.42.74-.47,1.12-.1.78.28,1.41.51,1.66.1.1.23.15.36.15.04,0,.08,0,.13-.02.18-.05.31-.18.36-.36.09-.34.26-.66.47-.96-.07.22-.11.43-.14.64-.08.83.2,1.55.83,2.09.7.6,1.98,1.01,3.2,1.01.84,0,1.57-.19,2.11-.56,1.27-.86,1.26-2.16,1.08-2.73-.06-.19-.24-.33-.44-.35-.01,0-.03,0-.04,0-.19,0-.36.11-.45.28-.42.84-1.1,1.02-1.59,1.02-.34,0-.7-.08-1.01-.23-.18-.09-.77-.42-.81-1.01-.03-.46.26-1.45,2.57-2.96,2.83-1.85,4.98-2.12,6.01-2.12.33,0,.52.03.52.03.03,0,.06,0,.08,0,.12,0,.23-.04.32-.12.11-.1.18-.23.18-.38v-2.49c0-.15-.07-.3-.19-.39-.09-.07-.2-.11-.31-.11-.04,0-.07,0-.11.01h0s-.21.04-.59.04c-.99,0-3.07-.28-5.92-2.14-2.3-1.51-2.6-2.5-2.57-2.96.04-.59.63-.92.81-1.01.31-.15.67-.23,1.01-.23.5,0,1.18.18,1.59,1.02.08.17.26.28.45.28.01,0,.03,0,.04,0,.2-.02.38-.15.44-.35.18-.57.19-1.87-1.08-2.73C17.16.19,16.43,0,15.58,0h0Z"/>
        </g>
        <g>
          <path class="cls-2" d="M22.93,16.32c-.08,0-.16-.04-.21-.11-.01-.02-1.44-2.14.28-3.73.33-.3.74-.45,1.24-.45.56,0,1.08.2,1.31.3.21-.13.38-.29.38-.35h0s-.08-.17-.82-.29c-.04,0-.08,0-.11,0-.15,0-.3.04-.48.1-.22.07-.48.14-.79.14s-.65-.08-1-.25c-1.13-.54-2.63-1.08-2.65-1.08-.1-.04-.17-.13-.17-.24,0-.11.07-.2.18-.23.02,0,1.51-.47,2.64-1.01.35-.17.67-.25,1-.25s.56.07.79.14c.18.05.33.1.48.1.04,0,.07,0,.11,0,.74-.13.82-.29.82-.29,0-.06-.17-.22-.38-.35-.23.1-.75.3-1.31.3-.5,0-.92-.15-1.24-.45-1.73-1.59-.3-3.71-.28-3.73.05-.07.12-.11.21-.11.03,0,.05,0,.08.01.11.04.17.14.17.25-.05.97.6,1.26,1.75,1.7.47.18,1.01.39,1.51.69,1.34.81,1.03,2.44.64,3.28.39.84.69,2.47-.64,3.28-.5.3-1.04.51-1.51.69-1.15.44-1.8.73-1.75,1.7,0,.11-.06.21-.17.25-.03,0-.05.01-.08.01Z"/>
          <path class="cls-1" d="M22.93,4.7c-.08,1.73,1.82,1.67,3.38,2.62,1.57.95.5,3.07.5,3.07,0,0,1.07,2.12-.5,3.07-1.57.95-3.47.89-3.38,2.62,0,0-1.34-1.94.25-3.4.32-.29.7-.39,1.07-.39.69,0,1.32.33,1.32.33,0,0,1.63-.83-.41-1.17-.05,0-.1-.01-.15-.01-.4,0-.75.24-1.27.24-.25,0-.54-.06-.89-.22-1.16-.56-2.67-1.09-2.67-1.09,0,0,1.52-.47,2.67-1.02.35-.17.64-.22.89-.22.51,0,.87.24,1.27.24.05,0,.1,0,.15-.01,2.04-.34.41-1.17.41-1.17,0,0-.63.33-1.32.33-.37,0-.76-.09-1.07-.39-1.59-1.46-.25-3.4-.25-3.4M22.93,4.2c-.16,0-.32.08-.41.22-.55.79-1.19,2.66.32,4.05.09.08.19.16.29.22-.16.04-.33.11-.5.19-1.11.53-2.59.99-2.6,1-.21.06-.35.25-.35.47,0,.22.13.41.33.48.01,0,1.51.53,2.62,1.07.17.08.33.14.5.19-.1.06-.2.14-.29.22-1.51,1.39-.87,3.26-.32,4.05.1.14.25.22.41.22.05,0,.11,0,.16-.03.21-.07.35-.27.34-.5-.04-.77.38-1,1.59-1.46.48-.19,1.03-.4,1.55-.71,1.43-.87,1.18-2.55.79-3.49.4-.94.65-2.63-.79-3.49-.52-.31-1.07-.52-1.55-.71-1.21-.46-1.63-.69-1.59-1.46.01-.22-.13-.43-.34-.5-.05-.02-.11-.03-.16-.03h0ZM25.44,8.76s.06-.02.09-.04c0,0,0,0,0,0-.03,0-.06.02-.1.03h0ZM25.53,12.06s-.06-.02-.09-.04c.04.01.07.02.1.03,0,0,0,0,0,0h0Z"/>
        </g>
      </g>
      <g>
        <g>
          <path class="cls-3" d="M328.8,16.11c-.3,0-.49-.07-.51-.07-.09-.03-.15-.11-.16-.2-.01-.09.03-.19.11-.24,0,0,.58-.4.66-.96.04-.29-.06-.59-.3-.88-.96-1.16-4.13-1.89-4.16-1.9-.12-.03-.21-.14-.19-.27.01-.13.12-.22.25-.22,3.8,0,5.79,1.68,6.21,2.8.19.52.1.98-.25,1.28-.65.55-1.26.67-1.65.67h0Z"/>
          <path class="cls-1" d="M324.49,11.61c4.78,0,6.82,2.76,5.8,3.64-.59.5-1.13.61-1.49.61-.26,0-.42-.06-.42-.06,0,0,1.43-.97.41-2.21s-4.3-1.98-4.3-1.98M324.49,11.11c-.25,0-.47.19-.5.44-.03.25.14.49.39.54.86.2,3.27.9,4.02,1.81.2.24.28.47.25.69-.05.37-.42.7-.55.79-.15.11-.24.29-.21.48.02.19.15.34.32.41.04.01.26.09.59.09.44,0,1.11-.13,1.81-.73.43-.36.54-.94.32-1.55-.54-1.47-2.93-2.97-6.44-2.97h0Z"/>
        </g>
        <g>
          <path class="cls-3" d="M324.49,9.38c-.13,0-.23-.1-.25-.22-.01-.13.07-.24.19-.27.03,0,3.2-.73,4.16-1.9.24-.29.34-.59.3-.88-.08-.56-.65-.96-.66-.96-.08-.05-.12-.15-.11-.24.01-.09.07-.17.16-.2.02,0,.21-.07.51-.07.4,0,1,.12,1.65.67.35.3.44.76.25,1.28-.42,1.13-2.41,2.8-6.21,2.8Z"/>
          <path class="cls-1" d="M328.8,4.88c.36,0,.9.11,1.49.61,1.02.88-1.02,3.64-5.8,3.64,0,0,3.27-.74,4.3-1.98,1.02-1.24-.41-2.21-.41-2.21,0,0,.16-.06.42-.06M328.8,4.38h0c-.33,0-.55.07-.59.09-.18.06-.3.22-.33.41s.06.37.22.48c.13.09.5.42.55.79.03.22-.05.45-.25.69-.75.91-3.16,1.62-4.02,1.81-.25.06-.42.29-.39.54.03.25.24.44.5.44,3.51,0,5.9-1.49,6.44-2.97.23-.61.11-1.19-.32-1.55-.71-.6-1.38-.73-1.81-.73h0Z"/>
        </g>
        <g>
          <path class="cls-3" d="M332.53,20.49c-.79,0-1.47-.18-1.97-.52-1.15-.77-1.15-1.94-.99-2.45.03-.1.12-.17.22-.17,0,0,.01,0,.02,0,.09,0,.18.05.22.14.47.96,1.25,1.16,1.82,1.16.38,0,.78-.09,1.12-.26.21-.1.9-.49.95-1.22.04-.63-.39-1.69-2.68-3.18-2.88-1.88-5.09-2.16-6.15-2.16-.35,0-.55.03-.56.04-.01,0-.03,0-.04,0-.06,0-.12-.02-.16-.06-.06-.05-.09-.12-.09-.19v-2.49c0-.08.03-.15.09-.19.04-.04.1-.06.16-.06.02,0,.04,0,.05,0,0,0,.23.05.65.05,1.02,0,3.15-.28,6.05-2.18,2.29-1.5,2.72-2.56,2.68-3.18-.05-.73-.74-1.12-.95-1.22-.34-.17-.74-.26-1.12-.26-.57,0-1.35.2-1.82,1.16-.04.09-.13.14-.22.14,0,0-.01,0-.02,0-.1,0-.19-.08-.22-.17-.16-.51-.16-1.67.99-2.45.5-.34,1.18-.52,1.97-.52,1.16,0,2.38.38,3.04.95.56.49.82,1.14.74,1.88-.07.67-.4,1.37-.92,2.04.79-.61,1.52-1.38,1.75-2.27.02-.09.09-.16.18-.18.02,0,.04,0,.06,0,.07,0,.13.03.18.08.02.02.56.59.45,1.45-.1.8-.73,1.56-1.86,2.25-.64.39-1.29.73-1.9,1.02,1.43-.52,3.08-1.34,4.61-2.62.05-.04.1-.06.16-.06.05,0,.1.02.15.05.09.07.13.19.09.29-.03.08-.81,2-2.67,2.68-.67.24-1.33.48-1.97.69,1.75-.4,3.86-1.26,5.16-3.05.05-.07.12-.1.2-.1.04,0,.08.01.12.03.04.03,1.09.63,1.09,1.59,0,.49-.27.96-.81,1.42.39-.04.87-.07,1.37-.07.84,0,1.55.09,2.12.26,1.5.46,3.76,1.53,3.85,1.58.09.04.14.13.14.23s-.06.18-.14.23c-.1.05-2.35,1.12-3.85,1.58-.57.17-1.28.26-2.12.26-.5,0-.97-.03-1.37-.07.53.45.8.93.81,1.42,0,.96-1.04,1.57-1.09,1.59-.04.02-.08.03-.12.03-.08,0-.15-.04-.2-.1-1.3-1.8-3.42-2.65-5.17-3.05.65.21,1.31.45,1.98.69,1.86.68,2.64,2.59,2.67,2.68.04.11,0,.23-.09.29-.04.03-.09.05-.15.05-.06,0-.11-.02-.16-.06-1.53-1.28-3.17-2.1-4.61-2.62.61.29,1.25.62,1.89,1.02,1.13.69,1.76,1.45,1.86,2.25.11.86-.42,1.43-.45,1.45-.05.05-.11.08-.18.08-.02,0-.04,0-.06,0-.09-.02-.16-.09-.18-.18-.23-.89-.96-1.67-1.75-2.27.53.67.86,1.37.92,2.04.07.74-.18,1.39-.74,1.88-.65.57-1.87.95-3.04.95Z"/>
          <path class="cls-1" d="M332.53.5c1.11,0,2.28.37,2.87.89,1.6,1.39.14,3.96-2.39,5.39,0,0,3.75-1.52,4.37-3.87,0,0,1.5,1.57-1.36,3.32-2.87,1.75-5.73,2.4-5.73,2.4,0,0,4.71-.23,8.73-3.59,0,0-.75,1.89-2.52,2.53-1.77.64-4.02,1.43-5.32,1.47-.33.01-.11.06.44.06,1.62,0,6.12-.43,8.36-3.52,0,0,2.52,1.43-.61,3.18,0,0,1.12-.21,2.38-.21.69,0,1.43.06,2.05.25,1.5.46,3.82,1.57,3.82,1.57,0,0-2.32,1.11-3.82,1.57-.62.19-1.36.25-2.05.25-1.27,0-2.38-.21-2.38-.21,3.14,1.75.61,3.18.61,3.18-2.23-3.09-6.74-3.52-8.36-3.52-.56,0-.77.05-.44.06,1.3.05,3.55.83,5.32,1.47,1.77.64,2.52,2.53,2.52,2.53-4.02-3.36-8.73-3.59-8.73-3.59,0,0,2.87.64,5.73,2.4,2.87,1.75,1.36,3.32,1.36,3.32-.61-2.35-4.37-3.87-4.37-3.87,2.52,1.43,3.99,4,2.39,5.39-.59.51-1.76.89-2.87.89-.68,0-1.34-.14-1.83-.47-1.3-.88-.89-2.17-.89-2.17.47.96,1.28,1.3,2.04,1.3.45,0,.88-.11,1.23-.28.96-.46,2.52-2.07-1.71-4.84-2.96-1.94-5.25-2.2-6.28-2.2-.39,0-.61.04-.61.04v-2.49s.24.05.7.05c1.05,0,3.24-.29,6.19-2.22,4.23-2.76,2.66-4.38,1.71-4.84-.35-.17-.79-.28-1.23-.28-.77,0-1.57.33-2.04,1.3,0,0-.41-1.29.89-2.17.49-.33,1.15-.47,1.83-.47M332.53,0C331.69,0,330.96.19,330.42.56c-1.27.86-1.26,2.16-1.08,2.73.06.19.24.33.44.35.01,0,.03,0,.04,0,.19,0,.36-.11.45-.28.42-.84,1.1-1.02,1.59-1.02.34,0,.7.08,1.01.23.18.09.77.42.81,1.01.03.46-.26,1.45-2.57,2.96-2.85,1.86-4.93,2.14-5.92,2.14-.38,0-.59-.04-.59-.04-.03,0-.07-.01-.1-.01-.11,0-.23.04-.32.11-.12.09-.19.24-.19.39v2.49c0,.15.07.29.18.38.09.08.2.12.32.12.03,0,.06,0,.09,0h0s.18-.03.52-.03c1.03,0,3.18.28,6.01,2.12,2.3,1.51,2.6,2.5,2.57,2.96-.04.59-.63.92-.81,1.01-.31.15-.67.23-1.01.23-.5,0-1.18-.18-1.59-1.02-.08-.17-.26-.28-.45-.28-.01,0-.03,0-.04,0-.2.02-.38.15-.44.35-.18.57-.19,1.87,1.08,2.73.54.36,1.27.56,2.11.56,1.22,0,2.51-.41,3.2-1.01.62-.54.91-1.27.83-2.09-.02-.21-.07-.43-.14-.64.22.3.39.62.47.96.05.18.18.31.36.36.04.01.08.02.13.02.13,0,.27-.05.36-.15.24-.25.62-.88.51-1.66-.05-.39-.21-.76-.47-1.12.31.22.61.45.91.7.09.08.21.12.32.12.1,0,.21-.03.29-.09.19-.13.26-.38.17-.59,0-.02-.08-.21-.23-.48.11.13.22.26.32.4.1.13.25.21.41.21.08,0,.17-.02.25-.06.05-.03,1.22-.7,1.21-1.81,0-.39-.14-.76-.42-1.12.23.01.48.02.73.02.86,0,1.6-.09,2.2-.27,1.52-.47,3.79-1.55,3.89-1.59.17-.08.28-.26.28-.45s-.11-.37-.28-.45c-.1-.05-2.37-1.13-3.89-1.59-.59-.18-1.33-.27-2.2-.27-.25,0-.5,0-.73.02.28-.36.42-.73.42-1.12,0-1.11-1.16-1.78-1.21-1.81-.08-.04-.16-.06-.25-.06-.16,0-.31.07-.41.21-.1.14-.21.27-.32.4.15-.27.22-.45.23-.48.08-.21.01-.46-.17-.59-.09-.06-.19-.09-.29-.09-.11,0-.23.04-.32.12-.3.25-.6.48-.91.7.26-.36.42-.74.47-1.12.1-.78-.28-1.41-.51-1.66-.1-.1-.23-.15-.36-.15-.04,0-.08,0-.13.02-.18.05-.31.18-.36.36-.09.34-.26.66-.47.96.07-.22.11-.43.14-.64.08-.83-.2-1.55-.83-2.09C335.04.41,333.75,0,332.53,0h0Z"/>
        </g>
        <g>
          <path class="cls-2" d="M325.19,16.32s-.05,0-.08-.01c-.11-.04-.17-.14-.17-.25.05-.97-.6-1.26-1.75-1.7-.47-.18-1.01-.39-1.51-.69-1.34-.81-1.03-2.44-.64-3.28-.39-.84-.69-2.47.64-3.28.5-.3,1.04-.51,1.51-.69,1.15-.44,1.79-.73,1.75-1.7,0-.11.06-.21.17-.25.03,0,.05-.01.08-.01.08,0,.16.04.21.11.01.02,1.44,2.14-.29,3.73-.33.3-.74.45-1.24.45-.56,0-1.08-.2-1.31-.3-.21.13-.37.29-.37.35h0s.08.17.82.29c.04,0,.08,0,.11,0,.15,0,.3-.04.48-.1.22-.07.48-.14.79-.14s.65.08,1,.25c1.13.54,2.62,1.01,2.64,1.01.1.03.17.13.18.23,0,.11-.07.21-.17.24-.01,0-1.52.54-2.65,1.08-.35.17-.67.25-1,.25h0c-.31,0-.56-.08-.79-.14-.18-.05-.33-.1-.48-.1-.04,0-.07,0-.11,0-.75.13-.82.29-.82.29,0,.06.17.22.38.35.23-.1.75-.3,1.31-.3.5,0,.92.15,1.24.45,1.73,1.59.3,3.71.28,3.73-.05.07-.13.11-.21.11Z"/>
          <path class="cls-1" d="M325.19,4.7s1.34,1.94-.25,3.4c-.32.29-.7.39-1.07.39-.69,0-1.32-.33-1.32-.33,0,0-1.63.83.41,1.17.05,0,.1.01.15.01.4,0,.75-.24,1.27-.24.25,0,.54.06.89.22,1.16.56,2.67,1.02,2.67,1.02,0,0-1.52.54-2.67,1.09-.35.17-.64.22-.89.22-.51,0-.87-.24-1.27-.24-.05,0-.1,0-.15.01-2.04.34-.41,1.17-.41,1.17,0,0,.63-.33,1.32-.33.37,0,.76.09,1.07.39,1.59,1.46.25,3.4.25,3.4.08-1.73-1.82-1.67-3.38-2.62-1.57-.95-.5-3.07-.5-3.07,0,0-1.07-2.12.5-3.07,1.57-.95,3.47-.89,3.38-2.62M325.19,4.2c-.05,0-.11,0-.16.03-.21.07-.35.27-.34.5.04.77-.38,1-1.59,1.46-.48.19-1.03.4-1.55.71-1.43.87-1.18,2.55-.79,3.49-.4.94-.65,2.63.79,3.49.52.31,1.07.52,1.55.71,1.21.46,1.63.69,1.59,1.46-.01.22.13.43.34.5.05.02.11.03.16.03.16,0,.32-.08.41-.22.55-.79,1.19-2.66-.32-4.05-.09-.08-.19-.16-.29-.22.16-.04.33-.11.5-.19,1.12-.54,2.61-1.07,2.62-1.07.2-.07.34-.27.33-.48s-.15-.4-.35-.47c-.01,0-1.5-.46-2.6-1-.17-.08-.33-.14-.5-.19.1-.06.2-.14.29-.22,1.51-1.39.87-3.26.32-4.05-.1-.14-.25-.22-.41-.22h0ZM322.58,8.73s0,0,0,0c.03.01.06.02.09.04-.04-.01-.07-.02-.1-.03h0ZM322.58,12.05s.06-.02.1-.03c-.03.01-.06.02-.09.04,0,0,0,0,0,0h0Z"/>
        </g>
      </g>
    </g>
  </g>
</svg>