<?xml version="1.0" encoding="UTF-8"?>
<svg id="Layer_2" data-name="Layer 2" xmlns="http://www.w3.org/2000/svg" viewBox="0 0 155.42 141.73">
  <defs>
    <style>
      .cls-1, .cls-2 {
        fill-rule: evenodd;
      }

      .cls-1, .cls-2, .cls-3, .cls-4 {
        stroke-width: 0px;
      }

      .cls-1, .cls-3 {
        fill: #d6282b;
      }

      .cls-2, .cls-4 {
        fill: #0f7360;
      }
    </style>
  </defs>
  <g id="Layer_1-2" data-name="Layer 1">
    <g>
      <path class="cls-1" d="M21.71,49.17c-.91-3.68-1.9-5.93-2.75-6.88-.11-.12-.15-.16-.2.02-.03.08-.2.61-.37.49-.94-.65-1.69-1.08-2.22-1.32-.04-.02-.05-.05-.05-.09-.14-.94-.57-3.58,1.11-3.17,2.57.63,4.44,5.18,5.02,7.54,0,.02.09-9.1,3.06-9.02.44.01,1.02.43,1.73,1.27.08.09.1.22.07.39-.11.7-.26,1.39-.45,2.09-.03.09-.05.11-.11.05-.82-.92-1.35-1.3-1.58-1.32-1.73-.13-1.9,4.48-1.98,5.57-.18,2.33-.55,3.79-1.04,4.37-.16.18-.2.17-.24,0Z"/>
      <path class="cls-3" d="M91.17,93.67c1.32-4.29,2.65-8.59,3.97-12.88-5.53.81-9.46,2.55-11.96,3.92-2.12,1.17-3.87,2.44-6.78,4.55-2.97,2.16-6.6,5.01-7.55,5.76-1.35,1.06-3.77,2.98-7.21,4.55-1.12.51-2.5,1.05-4.07.68-.36-.09-1.87-.45-2.76-1.84-.32-.5-.46-.98-.53-1.31-.23.91-.51,2.16-.73,3.68-.23,1.61-.44,3-.34,4.79.11,2.01.12,3.08.77,4.31.26.48,1.19,2.23,3,2.86,2.1.72,4.16-.47,6.97-2.08,1.83-1.05,3.11-2.11,4.41-3.2,1.85-1.55,2.77-2.56,3.97-3.73,1.65-1.61,4.31-4.2,8.09-6.44,4.36-2.59,7.69-3.22,8.72-3.39.84-.14,1.54-.21,2.03-.24Z"/>
      <path class="cls-3" d="M84.38,67.03c-.14-.21-.6-.94-1.38-1.05-.81-.12-1.38.51-2.76,1.6-1.37,1.09-2.06,1.63-2.69,1.92-1.96.92-4.67.21-6.46-1.16-1.97-1.51-3.05-3.98-2.8-6.32.1-.91.39-1.63.62-2.11,1.55-3.29,3.1-6.59,4.65-9.88.33-.53,1.33-2,3.23-2.65,1.71-.59,3.19-.18,4.18.11,3.25.95,5.09,3.44,5.99,4.68.42.58,1.88,2.69,2.65,6.21,1.23,5.6-.26,10.28-.98,12.46-2.11,6.38-6.09,10.44-8.35,12.42-6.04,3.76-12.08,7.53-18.12,11.29-.79.32-2.07.73-3.67.76-1,.02-1.94.03-2.8-.44-1.66-.91-2.03-3.11-2.25-4.47-.43-2.56.09-4.71.98-8.28.34-1.35.67-2.45.91-3.2.2.85.63,1.99,1.63,2.83,1.95,1.64,5.33,1.53,8.24-.47,5.83-3.25,11.66-6.5,17.49-9.76.23-.09,1.34-.56,1.84-1.79.08-.2.6-1.54-.16-2.72Z"/>
      <path class="cls-3" d="M66.86,58.33c.09-.66.22-1.59-.05-1.69-.3-.12-.97.9-1.31,1.4-.68,1.03-.9,1.69-1.16,2.18-.94,1.8-2.95,2.54-3.53,2.76-.53.2-3.02,1.12-5.47-.15-2.57-1.33-3.22-4.09-3.44-4.99-.16-.68-.21-1.27-.18-2.97.04-2.85.07-4.27.38-6.64.45-3.42,2.07-13.78,4.56-27.74-1.4,1.42-3.23,3.5-4.96,6.34,0,0-.35.57-.67,1.14-3.5,6.26-5.9,36.52-5.57,40.53.4,4.8,1.67,6.47,2.18,7.07.45.52,1.85,2.12,4.16,2.57,2.78.54,5.02-.92,6.15-1.65,2.49-1.62,3.67-3.78,4.7-5.67.38-.7,1.21-3,2.86-7.6.71-1.98-.1.23.94-3.06.07-.21.29-.9.41-1.83Z"/>
      <path class="cls-3" d="M28.38,20.5c2.07,2.06,4.63,4.97,7.08,8.79,1.1,1.72,3.38,5.32,5.12,10.34.95,2.75,3.22,9.55,2.28,18.41-.33,3.12-1.34,11.54-7.55,19.55-2.41,3.1-6.71,8.66-14.3,10.57-2.25.57-7.04,1.78-11.79-.54C1.81,83.99.52,74.71.22,72.57c-.61-4.38.13-7.76,1.22-11.75,2.49-9.11,9.23-18.4,10.36-20.28,1.06-1.77,2.12-5.35,2.92-5.2.46.09.31,1.64.26,2.15-.3,3.26-1.73,5.66-1.73,5.66-3.47,5.84-5.26,6.74-7.17,10.77-.79,1.67-1.96,4.2-2.09,7.64-.04,1.11-.22,5.74,2.37,9.33,4.06,5.64,13.06,6.15,19.16,4.16,6.42-2.09,11.92-7.7,13.03-14.12.2-1.17.19-1.98.17-3.37-.14-10.69-6.41-18.45-8.78-21.29-.74-.89-1.69-1.95-2.87-3.1-.08-.94-.12-1.93-.12-2.97.02-3.77.65-7.05,1.43-9.7Z"/>
      <path class="cls-3" d="M49.45,82.75c-.09,1.5-.8,2.73-1.72,3.83-.91,1.1-1.86,2.17-2.87,3.17-.79.78-.62,1.14.33,1.56,1.13.5,2.15,1.21,2.98,2.17,1.2,1.38,1.42,2.84.58,4.48-1.35,2.63-3.66,4.48-5.54,6.68-.33.39-.63.32-.9-.11-1.62-2.64-4.34-3.75-6.98-4.95-1.67-.76-1.71-.77-.52-2.21,1.91-2.31,3.8-4.64,5.76-6.91.61-.7.51-1.04-.2-1.54-1.61-1.14-3.34-2.01-5.16-2.73-.99-.39-1.31-.76-.51-1.71,2.09-2.47,4.14-4.98,6.17-7.49.5-.61.96-.79,1.7-.38,2,1.09,4.19,1.84,5.78,3.59.66.73,1.11,1.54,1.09,2.56Z"/>
      <path class="cls-3" d="M30.12,57.2c-.09,1.63-.9,2.97-1.9,4.15-1.48,1.76-3.08,3.4-4.62,5.11-.43.47-.8.93-1.34.09-1.83-2.87-4.81-4.13-7.74-5.44-1.93-.86-1.96-.87-.63-2.48,2.04-2.47,4.16-4.88,6.1-7.43.98-1.29,1.83-1.41,3.2-.63,1.99,1.13,4.15,1.96,5.74,3.72.74.83,1.19,1.76,1.18,2.89Z"/>
      <g>
        <path class="cls-4" d="M100.03,39.71c-3.44,0-6.46-1.81-8.35-3.13-.9-.63-.72-2.01.3-2.4,3.13-1.22,5.39-2.8,6.91-4.07,1.59-1.33,2.88-2.74,5-5.07,2.17-2.38,4.81-5.51,5.51-6.33.98-1.17,2.74-3.27,5.35-5.1.85-.6,1.92-1.31,3.2-1,1.56.38,2.4,2.5,2.82,3.96.07.25.45.21.46-.05.05-.67.08-1.43.1-2.26.03-1.62.06-3.02-.2-4.8-.28-1.99-.6-5.55-1.25-6.72-.25-.46-1.17-2.13-2.69-2.6-1.76-.55-3.3.79-5.4,2.63-1.36,1.19-2.29,2.35-3.23,3.53-1.34,1.69-1.98,2.77-2.83,4.03-1.17,1.73-3.05,4.52-5.87,7.05-3.26,2.92-5.87,3.81-6.67,4.06-.07.02-.14.04-.22.06-1.23.32-2.16,1.32-2.37,2.57l-3.65,22.12c-.25,1.53.63,3.02,2.09,3.53,2.57.9,6.56,2.47,9.55,2.49,3.03.03,5.75-.14,8.26-.46-.89,1.09-1.82,2.37-2.73,3.85,0,0-.35.57-.67,1.14-3.5,6.26-5.9,36.52-5.57,40.53.4,4.8,1.67,6.47,2.18,7.07.45.52,1.85,2.12,4.16,2.57,2.78.54,5.02-.92,6.15-1.65,2.49-1.62,3.67-3.78,4.7-5.67.38-.7,1.21-3,2.86-7.6.71-1.98-.1.23.94-3.06.07-.21.29-.9.41-1.83.09-.66.22-1.59-.05-1.69-.3-.12-.97.9-1.31,1.4-.68,1.03-.9,1.69-1.16,2.18-.94,1.8-2.95,2.54-3.53,2.76-.53.2-3.02,1.12-5.47-.15-2.57-1.33-3.22-4.09-3.44-4.99-.16-.68-.21-1.27-.18-2.97.04-2.85.07-4.27.38-6.64.42-3.23,1.9-12.69,4.16-25.53,16.65-2.7,23.03-12.12,42.46-13.77l4.28-12.45c-19.03-.44-30.07,14.53-55.4,14.45Z"/>
        <path class="cls-4" d="M128.82,118.03c-2.97,2.16-6.6,5.01-7.55,5.76-1.35,1.06-3.77,2.98-7.21,4.55-1.12.51-2.5,1.05-4.07.68-.36-.09-1.87-.45-2.76-1.84-.32-.5-.46-.98-.53-1.31-.23.91-.51,2.16-.73,3.68-.23,1.61-.44,3-.34,4.79.11,2.01.12,3.08.77,4.31.26.48,1.19,2.23,3,2.86,2.1.72,4.16-.47,6.97-2.08,1.83-1.05,3.11-2.11,4.41-3.2,1.85-1.55,2.77-2.56,3.97-3.73,1.65-1.61,4.31-4.2,8.09-6.44,4.36-2.59,7.69-3.22,8.72-3.39.84-.14,1.54-.21,2.03-.24,1.32-4.29,2.65-8.59,3.97-12.88-5.53.81-9.46,2.55-11.96,3.92-2.12,1.17-3.87,2.44-6.78,4.55Z"/>
        <path class="cls-4" d="M135.11,100.31c-5.83,3.25-11.66,6.5-17.49,9.76-2.91,2-6.29,2.11-8.24.47-1-.84-1.44-1.98-1.63-2.83-.24.75-.57,1.85-.91,3.2-.89,3.57-1.41,5.72-.98,8.28.22,1.35.59,3.55,2.25,4.47.86.47,1.79.45,2.8.44,1.6-.03,2.87-.44,3.67-.76,6.04-3.76,12.08-7.53,18.12-11.29,2.26-1.98,6.24-6.04,8.35-12.42.72-2.18,2.21-6.86.98-12.46-.77-3.52-2.23-5.63-2.65-6.21-.9-1.25-2.75-3.74-5.99-4.68-.99-.29-2.46-.7-4.18-.11-1.9.65-2.9,2.12-3.23,2.65-1.55,3.29-3.1,6.59-4.65,9.88-.23.47-.52,1.2-.62,2.11-.26,2.33.83,4.81,2.8,6.32,1.79,1.37,4.5,2.08,6.46,1.16.63-.29,1.32-.84,2.69-1.92,1.38-1.09,1.95-1.72,2.76-1.6.78.11,1.24.84,1.38,1.05.76,1.18.24,2.53.16,2.72-.5,1.23-1.61,1.7-1.84,1.79Z"/>
        <path class="cls-4" d="M100.14,115.35c.92-1.11,1.63-2.34,1.72-3.83.02-1.02-.43-1.83-1.09-2.56-1.59-1.75-3.78-2.5-5.78-3.59-.75-.41-1.21-.23-1.7.38-2.04,2.51-4.08,5.03-6.17,7.49-.8.94-.48,1.32.51,1.71,1.81.72,3.55,1.6,5.16,2.73.7.5.81.83.2,1.54-1.96,2.26-3.85,4.6-5.76,6.91-1.2,1.45-1.16,1.45.52,2.21,2.64,1.2,5.36,2.31,6.98,4.95.26.43.56.49.9.11,1.88-2.2,4.19-4.04,5.54-6.68.84-1.63.62-3.1-.58-4.48-.83-.95-1.85-1.66-2.98-2.17-.95-.42-1.12-.77-.33-1.56,1.01-1,1.96-2.08,2.87-3.17Z"/>
      </g>
      <path class="cls-3" d="M80.83,116.36c.3.91.27,1.8-.08,2.77-.38,1.06-1.26,1.91-2.22,2.26-.95.32-1.72.22-2.56-.08-1.45-.52-2.47-2.04-2.69-3.98-.23-1.9.06-3.43.66-5.11.68-1.9,1.7-3.54,3.05-4.98,1.25-1.37,2.53-2.41,3.85-3.14,1.24-.72,2.07-1.01,2.46-.87.61.22-.12.94-1.22,1.68-2.91,1.94-4.34,3.91-5.29,6.58-.39,1.39-.36,1.73-.34,2.57.85-.03,1.64.08,2.13.25,1.13.4,1.86,1.1,2.25,2.04Z"/>
      <path class="cls-2" d="M92.99,65.16c-.9,2.1-1.4,3.94-1.48,5.52-.09,1.75.3,4.01,2.27,4.52,2.39.41,3.83-3.76,4.05-5.7.11-1-.24-1.09-.71-.19-.3.58-.67,1.85-1.41,2-1.41.3-2.23-1.9-2.17-2.85-.06-1.4.59-3.61,1.95-6.65.32-.71.71-1.7,1.16-2.96.28-1.36.04-1.44-.72-.24-.85,1.65-1.83,3.83-2.94,6.54Z"/>
      <path class="cls-2" d="M140.61,69.88c1.15.01,2.18.74,3.1,2.12.92,1.38,1.56,3.2,1.91,5.42.03.25.06.37.06.41.03.06.06.06.09,0,0-.03.06-.16.16-.4.2-1.31.66-3.3,1.43-5.95.8-1.86,1.68-2.82,2.62-2.81.47,0,.93.35,1.43.98.4.57.61,1.04.61,1.38,0,.28-.1.62-.23,1.06-.19.59-.41.87-.66.87-.12,0-.34-.22-.68-.66-.37-.44-.71-.69-1.09-.7-.84,0-1.64,1.95-2.36,5.87-.33,1.71-.68,2.93-1.06,3.61-.29.5-.51.71-.69.71s-.25-.22-.24-.66c0-.69-.39-2-1.15-4-.79-2-1.34-3.01-1.66-3.01-.25,0-.38.09-.44.21-.06.16-.25.22-.56.21-.37,0-.84-.26-1.4-.79-.56-.5-.83-.94-.83-1.26,0-.13.22-.59.73-1.4.48-.81.79-1.21.92-1.21Z"/>
      <path class="cls-2" d="M116.05,78.55c-.42.5-.67.36-.41-.22,3.04-6.88,2.85-13.31-.84-19.15-.01-.02,0-.06.01-.09.56-1.29,1.03-2.23,1.39-2.82.04-.06.08-.07.12,0,3.24,5.76,3.97,11.44,2.21,17.02-.84,2.43-1.61,4.24-2.49,5.27Z"/>
      <path class="cls-2" d="M132.01,63.74c-.59.98-.84,3.79-2.83,2.5-3.54-2.28,2.45-11.97,2.51-13.85-.92.23-.95.88-1.86,2.51-.59,1.05-.99,1.82-1.49,2.92-.91,1.99-1.86,4.23-2.11,6.83-.24,2.53.71,6.36,3.38,5.13,1.02-.47,3.36-4.86,2.4-6.04Z"/>
      <path class="cls-2" d="M148.31,51.31c.06-.58-.03-1.13-.24-1.68-.24-.58-.59-.83-1.02-.74-.23.05-.49.22-.79.49-.33.28-.46.51-.42.69.1.46.9.85,2.47,1.24h0ZM147.74,54c-1.96-.54-3.05-1.3-3.26-2.32-.25-1.2.05-2.43.98-3.7.9-1.23,1.77-1.8,2.56-1.7.68.1,1.14.71,1.37,1.83.22,1.03.22,2.19.09,3.53.99.33,1.66.66,1.96.96.1.49-.13,1.37-.69,2.68-.3-.29-.94-.64-1.9-.97-.71,1.58-1.7,3.1-2.98,4.54-1.47,1.65-2.86,2.96-4.16,3.89-.28.24-1.83,1.22-4.62,2.97-.45.27-.74.43-.89.46-.09.02-.11.02-.13-.03-.02-.11.19-.4.66-.85,1.95-1.78,3.92-3.6,5.92-5.45,2.34-2.19,4.05-4.14,5.09-5.82Z"/>
      <path class="cls-2" d="M143,100.56c0,4.77,4.97,6.25,4.97-.21-1.04.38-.53,1.66-1.86,1.66-1.7,0-1.86-2.5-1.86-3.73,0-4.25,3.38-9.03,3.52-10.77-1.24.33-2.61,4.31-3.17,5.74-.8,2.03-1.6,4.59-1.6,7.31Z"/>
      <path class="cls-1" d="M63.1,50.24c-.56.67-.89.48-.55-.29,4.05-9.16,3.79-17.73-1.12-25.5-.02-.03,0-.07.02-.13.75-1.72,1.37-2.97,1.85-3.75.05-.09.11-.1.16-.01,4.31,7.67,5.29,15.23,2.95,22.66-1.11,3.24-2.14,5.64-3.31,7.02Z"/>
      <path class="cls-1" d="M38.2,21.72c1.15.01,2.18.74,3.1,2.12.92,1.38,1.56,3.2,1.91,5.42.03.25.06.37.06.41.03.06.06.06.09,0,0-.03.06-.16.16-.4.2-1.31.66-3.3,1.43-5.95.8-1.86,1.68-2.82,2.62-2.81.47,0,.93.35,1.43.98.4.57.61,1.04.61,1.38,0,.28-.1.62-.23,1.06-.19.59-.41.87-.66.87-.12,0-.34-.22-.68-.66-.37-.44-.71-.69-1.09-.7-.84,0-1.64,1.95-2.36,5.87-.33,1.71-.68,2.93-1.06,3.61-.29.5-.51.71-.69.71s-.25-.22-.24-.66c0-.69-.39-2-1.15-4-.79-2-1.34-3.01-1.66-3.01-.25,0-.38.09-.44.21-.06.16-.25.22-.56.21-.37,0-.84-.26-1.4-.79-.56-.5-.83-.94-.83-1.26,0-.13.22-.59.73-1.4.48-.81.79-1.21.92-1.21Z"/>
      <path class="cls-1" d="M73.56,20.45c1.4.22,2.51,1.28,3.39,3.12.88,1.84,1.33,4.16,1.36,6.91,0,.31,0,.47,0,.5.03.08.06.09.11.02,0-.04.1-.18.27-.46.47-1.55,1.38-3.89,2.79-6.96,1.3-2.12,2.54-3.13,3.67-2.95.57.09,1.07.59,1.56,1.44.39.76.56,1.37.5,1.78-.05.34-.23.74-.46,1.24-.34.68-.66.98-.96.93-.15-.02-.37-.33-.71-.92-.37-.6-.74-.97-1.19-1.04-1.02-.16-2.34,2.08-3.91,6.71-.7,2.02-1.35,3.43-1.93,4.19-.43.55-.74.78-.97.74s-.26-.31-.18-.84c.13-.83-.11-2.5-.68-5.06-.61-2.57-1.1-3.89-1.48-3.95-.3-.05-.47.04-.57.18-.1.18-.34.22-.72.16-.45-.07-.97-.46-1.55-1.21-.59-.71-.85-1.29-.79-1.67.02-.15.38-.68,1.13-1.57.72-.89,1.17-1.33,1.33-1.3Z"/>
      <path class="cls-4" d="M110.91,35.05c-1.13.04-2.24-.18-3.29-.66-.37-.17-.7-.4-.99-.7-.44-.46-.52-1.03-.47-1.63.12-1.4.91-2.43,1.9-3.35,1.07-.99,2.36-1.62,3.58-2.38.39-.24.76-.5,1.12-.77.2-.15.2-.2,0-.32-.45-.28-.93-.45-1.46-.49-1.07-.08-2.02.28-2.95.75-.07.04-.14.07-.21.11-.07.04-.14.11-.22.05-.08-.06-.02-.15,0-.22.17-.43.39-.84.66-1.22.42-.59.92-1.1,1.55-1.46.3-.17.65-.21.98-.27.88-.16,1.75-.12,2.61.1.22.05.43.12.63.22.39.19.52.54.55.94.05.63-.2,1.17-.5,1.7-.63,1.1-1.54,1.94-2.53,2.7-.96.75-2.05,1.29-3.05,1.97-.33.22-.64.48-.92.76-.1.1-.09.15.02.24.95.75,2.05,1.07,3.24,1.14,1.06.06,2.12-.04,3.15-.29,1.73-.42,3.37-1.05,4.92-1.94,1.45-.84,2.77-1.84,3.94-3.05.21-.22.42-.44.62-.67.26-.3.6-.47.98-.55.07-.01.15-.04.19.04.04.07-.02.12-.05.17-.86,1.53-1.86,2.96-3.07,4.23-1.15,1.21-2.48,2.19-3.98,2.93-1.02.5-2.06.98-3.15,1.31-1.24.38-2.49.66-3.83.62Z"/>
      <path class="cls-3" d="M30.06,93.81c.16.49.14.99-.04,1.51-.21.58-.69,1.05-1.22,1.24-.52.17-.94.12-1.4-.04-.79-.28-1.35-1.12-1.47-2.17-.13-1.04.03-1.88.36-2.79.37-1.04.93-1.93,1.67-2.72.68-.75,1.38-1.32,2.1-1.71.68-.39,1.13-.55,1.34-.48.34.12-.06.51-.66.92-1.59,1.06-2.37,2.13-2.89,3.6-.21.76-.2.94-.18,1.41.46-.01.9.04,1.16.14.62.22,1.02.6,1.23,1.12Z"/>
    </g>
  </g>
</svg>